HIERARCHY
ROOT Hips
{
	OFFSET -0.001795 -0.223333 0.028219
	CHANNELS 6 Xposition Yposition Zposition Zrotation Yrotation Xrotation 
	JOINT LeftUpLeg
	{
		OFFSET 0.069520 -0.091406 -0.006815
		CHANNELS 3 Zrotation Yrotation Xrotation
		JOINT LeftLeg
		{
			OFFSET 0.034277 -0.375199 -0.004496
			CHANNELS 3 Zrotation Yrotation Xrotation
			JOINT LeftFoot
			{
				OFFSET -0.013596 -0.397961 -0.043693
				CHANNELS 3 Zrotation Yrotation Xrotation
				JOINT LeftToe
				{
					OFFSET 0.026358 -0.055791 0.119288
					CHANNELS 3 Zrotation Yrotation Xrotation
					End Site
					{
						OFFSET 0.000000 0.000000 0.000000
					}
				}
			}
		}
	}
	JOINT RightUpLeg
	{
		OFFSET -0.067670 -0.090522 -0.004320
		CHANNELS 3 Zrotation Yrotation Xrotation
		JOINT RightLeg
		{
			OFFSET -0.038290 -0.382569 -0.008850
			CHANNELS 3 Zrotation Yrotation Xrotation
			JOINT RightFoot
			{
				OFFSET 0.015774 -0.398415 -0.042312
				CHANNELS 3 Zrotation Yrotation Xrotation
				JOINT RightToe
				{
					OFFSET -0.025372 -0.048144 0.123348
					CHANNELS 3 Zrotation Yrotation Xrotation
					End Site
					{
						OFFSET 0.000000 0.000000 0.000000
					}
				}
			}
		}
	}
	JOINT Spine
	{
		OFFSET -0.002533 0.108963 -0.026696
		CHANNELS 3 Zrotation Yrotation Xrotation
		JOINT Spine1
		{
			OFFSET 0.005487 0.135180 0.001092
			CHANNELS 3 Zrotation Yrotation Xrotation
			JOINT Spine2
			{
				OFFSET 0.001457 0.052922 0.025425
				CHANNELS 3 Zrotation Yrotation Xrotation
				JOINT Neck
				{
					OFFSET -0.002778 0.213870 -0.042857
					CHANNELS 3 Zrotation Yrotation Xrotation
					JOINT Head
					{
						OFFSET 0.005152 0.064970 0.051349
						CHANNELS 3 Zrotation Yrotation Xrotation
						End Site
						{
							OFFSET 0.000000 0.000000 0.000000
						}
					}
				}
				JOINT LeftShoulder
				{
					OFFSET 0.078845 0.121749 -0.034090
					CHANNELS 3 Zrotation Yrotation Xrotation
					JOINT LeftArm
					{
						OFFSET 0.090977 0.030469 -0.008868
						CHANNELS 3 Zrotation Yrotation Xrotation
						JOINT LeftForeArm
						{
							OFFSET 0.259612 -0.012772 -0.027456
							CHANNELS 3 Zrotation Yrotation Xrotation
							JOINT LeftHand
							{
								OFFSET 0.249234 0.008986 -0.001171
								CHANNELS 3 Zrotation Yrotation Xrotation
								End Site
								{
									OFFSET 0.000000 0.000000 0.000000
								}
							}
						}
					}
				}
				JOINT RightShoulder
				{
					OFFSET -0.081759 0.118833 -0.038615
					CHANNELS 3 Zrotation Yrotation Xrotation
					JOINT RightArm
					{
						OFFSET -0.096012 0.032551 -0.009143
						CHANNELS 3 Zrotation Yrotation Xrotation
						JOINT RightForeArm
						{
							OFFSET -0.253742 -0.013329 -0.021401
							CHANNELS 3 Zrotation Yrotation Xrotation
							JOINT RightHand
							{
								OFFSET -0.255298 0.007772 -0.005559
								CHANNELS 3 Zrotation Yrotation Xrotation
								End Site
								{
									OFFSET 0.000000 0.000000 0.000000
								}
							}
						}
					}
				}
			}
		}
	}
}
MOTION
Frames: 9
Frame Time: 0.050000
0.000000 0.955028 0.000000 -0.738750 -6.404149 3.077096 -2.262310 -0.259873 -2.471189 -1.110187 0.076754 3.157302 1.628864 6.670686 12.650913 0.000000 0.000000 0.000000 3.029173 0.139368 -2.126256 0.325825 0.076393 2.610497 -3.346132 -9.392933 2.998889 0.000000 0.000000 0.000000 5.225756 -0.746550 7.927115 -5.698095 1.776730 -29.583184 -0.681422 6.915148 31.889923 10.283156 -3.966284 -27.354210 0.000000 0.000000 0.000000 -17.519679 -1.029850 -0.743448 -57.016534 -6.152844 -6.994942 -2.431217 -26.185887 1.996436 0.000000 0.000000 0.000000 25.205526 -8.879768 -6.170252 59.349420 3.189969 -7.441038 5.483236 26.669183 2.861502 0.000000 0.000000 0.000000 
0.000601 0.953698 0.000718 -1.086252 -6.375287 3.685160 -1.568689 -0.296074 -2.910027 -1.738377 0.173866 2.923215 1.678334 6.646254 12.149814 0.000000 0.000000 0.000000 3.186395 0.191386 -2.596657 0.116910 0.100771 2.621165 -2.860318 -8.151952 2.583593 0.000000 0.000000 0.000000 5.686525 -0.716650 6.971980 -6.197665 1.875131 -28.993890 -0.672795 6.810743 31.982480 10.380853 -3.949038 -27.886715 0.000000 0.000000 0.000000 -17.539860 -0.153210 -1.183049 -57.166714 -6.468841 -6.879455 -1.981172 -27.044283 1.995312 0.000000 0.000000 0.000000 25.554678 -9.572767 -6.717271 60.276251 2.814717 -7.702322 4.986291 27.996741 2.950856 0.000000 0.000000 0.000000 
0.001173 0.953572 0.001304 -0.800720 -6.057681 3.713791 -1.499711 -0.355573 -3.502130 -2.399578 0.265566 3.859454 1.502546 6.403136 12.184915 0.000000 0.000000 0.000000 2.858901 0.231169 -2.861913 0.107382 0.128247 3.224949 -3.003644 -8.324786 2.191191 0.000000 0.000000 0.000000 6.055918 -0.720789 6.691570 -7.440727 2.127925 -29.047990 -0.268522 5.706754 32.267040 9.710282 -3.829704 -27.278860 0.000000 0.000000 0.000000 -18.055232 -0.299024 -0.923346 -56.317196 -7.044179 -6.567702 -1.390110 -26.277562 1.833634 0.000000 0.000000 0.000000 25.153817 -9.621781 -6.969095 59.906235 2.890155 -7.614047 5.299940 27.948815 2.954503 0.000000 0.000000 0.000000 
0.001639 0.954002 0.002027 -0.706076 -6.438659 3.584088 -2.035161 -0.376737 -3.587322 -1.794830 0.169254 4.341970 1.724750 6.758901 12.361299 0.000000 0.000000 0.000000 2.836403 0.233687 -2.892154 0.332942 0.104518 3.278848 -3.379378 -9.301029 2.517205 0.000000 0.000000 0.000000 5.988116 -0.722406 6.819556 -7.206101 2.057017 -30.160190 -0.422142 6.579916 33.785856 10.008279 -3.915045 -27.595419 0.000000 0.000000 0.000000 -18.065366 -0.217807 -1.052018 -56.571142 -7.223518 -6.680921 -0.566702 -27.504121 1.754949 0.000000 0.000000 0.000000 26.026343 -10.746258 -7.610159 59.196527 2.968868 -7.731310 6.400738 29.324729 3.509820 0.000000 0.000000 0.000000 
0.002058 0.954743 0.002672 -0.716537 -6.152775 3.401920 -2.095528 -0.390032 -3.703047 -1.660470 0.139381 4.926226 1.574381 6.585228 12.529729 0.000000 0.000000 0.000000 2.836604 0.223577 -2.785741 0.126272 0.130619 3.324436 -3.264818 -9.229181 3.045529 0.000000 0.000000 0.000000 5.769347 -0.728673 7.103725 -6.681193 1.972034 -29.420812 -0.672200 6.522787 32.846719 9.923358 -3.917180 -26.925126 0.000000 0.000000 0.000000 -18.514704 -0.142000 -1.209202 -56.156381 -7.378680 -6.450283 -0.227338 -27.467126 1.637664 0.000000 0.000000 0.000000 25.467700 -10.887509 -7.576225 59.346426 3.000095 -7.621602 5.971145 29.701946 3.453970 0.000000 0.000000 0.000000 
0.002474 0.955279 0.003116 -0.656398 -5.988329 3.271659 -2.196970 -0.426913 -4.024060 -1.801507 0.152792 6.008332 1.754841 6.794809 12.020870 0.000000 0.000000 0.000000 2.914436 0.216359 -2.721966 -0.045115 0.159913 3.514316 -3.424356 -9.611791 3.135860 0.000000 0.000000 0.000000 5.677205 -0.741835 7.360595 -6.767495 1.984875 -29.724900 -0.757764 6.184395 33.080135 9.879120 -3.990264 -26.642114 0.000000 0.000000 0.000000 -18.650767 0.081880 -1.278496 -55.869754 -7.317631 -6.490439 0.259085 -28.213113 1.595197 0.000000 0.000000 0.000000 25.354017 -10.992077 -7.701316 58.937493 2.696083 -7.734244 5.907114 30.683299 3.557553 0.000000 0.000000 0.000000 
0.002907 0.955639 0.003266 -0.694778 -6.026936 3.090543 -2.216122 -0.441755 -4.148804 -1.932626 0.172773 6.687320 2.053232 7.251918 11.857328 0.000000 0.000000 0.000000 3.037996 0.211506 -2.687136 -0.271755 0.195956 3.675805 -3.406073 -9.665763 3.410946 0.000000 0.000000 0.000000 5.665803 -0.771424 7.766482 -6.534315 1.942526 -29.626609 -1.007017 6.076984 32.784323 9.913999 -4.035756 -26.582850 0.000000 0.000000 0.000000 -19.035459 0.157754 -1.331748 -55.605472 -7.012220 -6.576955 0.516654 -28.503442 1.552631 0.000000 0.000000 0.000000 25.573449 -11.079257 -7.855220 58.454006 2.624509 -7.685477 5.830588 31.294963 3.600925 0.000000 0.000000 0.000000 
0.003354 0.955825 0.003244 -0.750819 -5.998072 2.959935 -2.168708 -0.488366 -4.589056 -2.260179 0.230770 7.939746 2.509463 7.906035 11.300492 0.000000 0.000000 0.000000 3.230571 0.236188 -2.890324 -0.414297 0.229890 3.994049 -3.614613 -10.268946 3.853179 0.000000 0.000000 0.000000 5.771536 -0.804447 8.081539 -6.684892 1.972681 -29.555227 -1.004154 5.599763 32.768434 9.973037 -4.157867 -26.599264 0.000000 0.000000 0.000000 -19.475973 -0.074849 -1.118122 -55.238874 -7.074889 -6.536540 0.992149 -28.799907 1.481371 0.000000 0.000000 0.000000 25.763922 -10.862001 -7.895971 58.031348 2.519630 -7.681379 5.742383 32.087726 3.645364 0.000000 0.000000 0.000000 
0.003680 0.955617 0.003119 -0.773416 -6.138977 2.756081 -2.224497 -0.518045 -4.837228 -2.548952 0.292393 8.870647 3.161742 8.923128 10.960443 0.000000 0.000000 0.000000 3.326523 0.240125 -2.923104 -0.472460 0.247496 4.185160 -3.758823 -10.658464 4.087862 0.000000 0.000000 0.000000 5.917209 -0.847104 8.495015 -6.616022 1.959914 -29.380761 -1.175087 5.718071 32.653061 9.945051 -4.125745 -26.635114 0.000000 0.000000 0.000000 -19.798370 -0.101936 -1.142023 -54.974432 -7.053422 -6.514467 1.436732 -28.818135 1.366231 0.000000 0.000000 0.000000 26.120688 -10.950179 -8.017784 57.426883 2.446670 -7.653257 5.960298 32.768669 3.793361 0.000000 0.000000 0.000000 
